HIERARCHY
ROOT hip
{
	OFFSET 0.000000 0.000000 0.000000 
	CHANNELS 6 Xposition Yposition Zposition Xrotation Zrotation Yrotation
	JOINT abdomen
	{
		OFFSET 0.000000 3.402643 0.000000 
		CHANNELS 3 Xrotation Zrotation Yrotation
		JOINT chest
		{
			OFFSET 0.000000 8.438565 -0.680529 
			CHANNELS 3 Xrotation Zrotation Yrotation
			JOINT neck
			{
				OFFSET 0.000000 10.207942 -0.272212 
				CHANNELS 3 Xrotation Zrotation Yrotation
				JOINT head
				{
					OFFSET 0.000000 3.130431 0.000000 
					CHANNELS 3 Xrotation Zrotation Yrotation
					End Site
					{
						OFFSET 0.000000 3.130435 0.000000 
					}
				}
			}
			JOINT lCollar
			{
				OFFSET 3.470700 6.669187 -0.816635 
				CHANNELS 3 Yrotation Zrotation Xrotation
				JOINT lShldr
				{
					OFFSET 3.198488 0.000000 0.000000 
					CHANNELS 3 Zrotation Yrotation Xrotation
					JOINT lForeArm
					{
						OFFSET 10.139888 0.000000 0.000000 
						CHANNELS 3 Yrotation Zrotation Xrotation
						JOINT lHand
						{
							OFFSET 8.370511 0.000000 0.000000 
							CHANNELS 3 Zrotation Yrotation Xrotation
							End Site
							{
								OFFSET 4.083176 0.000000 0.000000 
							}
						}
					}
				}
			}
			JOINT rCollar
			{
				OFFSET -3.470700 6.669187 -0.816635 
				CHANNELS 3 Yrotation Zrotation Xrotation
				JOINT rShldr
				{
					OFFSET -3.198488 0.000000 0.000000 
					CHANNELS 3 Zrotation Yrotation Xrotation
					JOINT rForeArm
					{
						OFFSET -10.139888 0.000000 0.000000 
						CHANNELS 3 Yrotation Zrotation Xrotation
						JOINT rHand
						{
							OFFSET -8.370511 0.000000 0.000000 
							CHANNELS 3 Zrotation Yrotation Xrotation
							End Site
							{
								OFFSET -4.083176 0.000000 0.000000 
							}
						}
					}
				}
			}
		}
	}
	JOINT lThigh
	{
		OFFSET 5.308129 -1.633274 1.361059 
		CHANNELS 3 Xrotation Zrotation Yrotation
		JOINT lShin
		{
			OFFSET -2.041588 -20.007561 0.000000 
			CHANNELS 3 Xrotation Zrotation Yrotation
			JOINT lFoot
			{
				OFFSET 0.000000 -19.190928 -1.224953 
				CHANNELS 3 Xrotation Yrotation Zrotation
				End Site
				{
					OFFSET 0.000000 -2.449906 4.627600 
				}
			}
		}
	}
	JOINT rThigh
	{
		OFFSET -5.308129 -1.633274 1.361059 
		CHANNELS 3 Xrotation Zrotation Yrotation
		JOINT rShin
		{
			OFFSET 2.041588 -20.007561 0.000000 
			CHANNELS 3 Xrotation Zrotation Yrotation
			JOINT rFoot
			{
				OFFSET 0.000000 -19.190928 -1.224953 
				CHANNELS 3 Xrotation Yrotation Zrotation
				End Site
				{
					OFFSET 0.000000 -2.449906 4.627600 
				}
			}
		}
	}
}
MOTION
Frames: 13
Frame Time: 0.033333
0.953380 52.608845 -0.280407 -1.787109 -8.095703 108.505859 9.881115 -20.992710 1.628825 -10.595703 10.107423 2.177735 51.063168 8.107644 2.471410 -65.683594 -2.714843 -6.162572 2.000000 -2.000000 0.000000 -86.748047 23.525393 -5.791016 -48.106701 -1.718971 -2.018467 13.255770 62.839508 6.781216 -2.000000 2.000000 0.000000 75.810547 -23.134766 14.570313 56.870209 1.365076 -2.156688 -28.810472 -70.964233 27.237730 -21.898748 11.049560 15.964927 43.581078 -3.944821 -3.687671 4.356082 10.795262 2.507962 -4.759185 0.802460 -16.376017 9.090008 5.332984 0.955088 -5.681861 -5.473133 -6.189528 
1.903703 52.569458 -0.544319 -1.611328 -8.457032 107.430199 9.582369 -20.868511 2.873606 -10.488281 9.101563 1.845703 51.063168 8.107644 2.471410 -66.640625 -3.300781 -5.761719 2.000000 -2.000000 0.000000 -88.193359 22.900391 -8.921979 -48.463848 -1.690368 -1.863389 15.675559 61.460358 6.707299 -2.000000 2.000000 0.000000 74.746094 -20.634768 15.585937 57.573906 1.336965 -2.177880 -27.343479 -70.819328 25.501080 -23.557905 10.238601 15.444633 41.330475 -4.006270 -3.515459 1.643188 9.291909 2.599635 -4.094254 0.568745 -15.654317 9.607715 5.321090 0.822835 -6.305573 -4.872359 -6.573908 
2.920987 52.490681 -0.835380 -1.425781 -8.789062 106.191406 9.221300 -20.518017 3.684065 -10.351563 8.593751 1.710444 51.063168 8.107644 2.471410 -67.421875 -4.072265 -5.117188 2.000000 -2.000000 0.000000 -89.560547 22.753904 -12.011719 -48.475449 -1.978212 -1.934559 17.380281 60.454769 7.084680 -2.000000 2.000000 0.000000 74.316406 -18.974609 16.230469 58.101559 1.308285 -2.189327 -27.017179 -70.465973 25.137766 -25.155767 9.755850 14.699620 39.188332 -4.148830 -3.387987 -0.995700 8.012514 2.158563 -3.024155 0.313862 -14.957886 9.263083 5.505394 0.503447 -6.898508 -4.442646 -6.996372 
4.004704 52.419781 -1.183542 -1.425781 -9.316406 105.320686 8.437495 -20.265181 3.996056 -10.175781 8.583984 1.914063 51.063168 8.107644 2.471410 -67.910156 -5.205078 -4.199219 2.000000 -2.000000 0.000000 -90.849609 22.900391 -13.339844 -48.298580 -1.858378 -1.892675 16.492886 60.819767 7.032766 -2.000000 2.000000 0.000000 74.531250 -17.822266 15.693360 58.277340 1.308285 -2.189327 -26.260386 -70.168579 24.056589 -26.734468 8.972402 14.076407 34.622040 -4.391865 -3.068140 -3.886642 6.092422 1.927373 -1.928527 0.071084 -14.595778 9.262156 5.506965 0.503554 -7.772357 -3.897987 -7.433537 
5.194939 52.317371 -1.661355 -1.455078 -9.687500 104.462891 7.852315 -19.763157 4.139669 -9.990234 8.564453 1.935048 51.063168 8.107644 2.471410 -68.154297 -5.849609 -3.271485 2.000000 -2.000000 0.000000 -90.751953 23.457033 -13.150408 -47.759899 -1.708157 -1.833012 14.371167 61.898540 6.602953 -2.000000 2.000000 0.000000 74.794922 -17.021486 14.928782 58.453415 1.289355 -2.200207 -25.683054 -69.661545 23.323677 -28.092724 8.465067 13.720541 30.573360 -4.605133 -2.761153 -6.332316 4.645106 1.817413 -0.992769 -0.133495 -14.068779 9.618546 5.468171 0.726159 -8.122202 -3.237484 -7.042812 
6.427816 52.175552 -2.223711 -1.455078 -10.214844 103.592018 6.936112 -19.426882 4.280635 -9.785156 8.886719 2.081587 51.063168 8.107644 2.471410 -68.574219 -6.308593 -2.374120 2.000000 -2.000000 0.000000 -90.849609 23.857420 -13.154297 -47.418846 -1.876168 -1.862298 13.285575 62.527283 7.227999 -2.000000 2.000000 0.000000 75.537109 -16.250000 13.737503 58.630630 1.409751 -2.251874 -26.065874 -69.143547 23.342157 -29.621021 7.642186 13.137464 26.545101 -4.668395 -2.453025 -8.065969 3.255613 1.783425 -0.155059 -0.504633 -13.728512 9.957466 5.281053 1.034984 -8.791711 -2.607023 -6.611371 
7.680607 51.954975 -2.783087 -1.611328 -10.732421 102.927872 6.186218 -19.074568 4.406398 -9.599608 9.033204 2.345283 51.063168 8.107644 2.471410 -68.964844 -6.601562 -1.505029 2.000000 -2.000000 0.000000 -90.283203 24.013672 -11.617121 -47.236481 -1.726444 -1.978917 12.184439 63.616238 7.660503 -2.000000 2.000000 0.000000 76.074219 -16.367188 13.164063 58.629189 1.289355 -2.200207 -26.581562 -68.884415 24.174074 -30.913939 6.717027 13.091975 22.658098 -4.818272 -2.133260 -8.391487 1.433108 2.074497 0.409602 -0.893110 -13.007166 10.709819 5.291534 1.089517 -9.591669 -2.083904 -6.614340 
8.843674 51.655605 -3.297681 -1.816406 -11.269531 102.468407 5.491530 -18.657190 4.355014 -9.404296 9.345703 2.491821 51.063168 8.107644 2.471410 -69.316406 -6.562500 -0.771484 2.000000 -2.000000 0.000000 -89.726563 23.847656 -9.912109 -47.067806 -2.014362 -1.883550 11.922405 64.316269 8.371458 -2.000000 2.000000 0.000000 76.250000 -17.099607 12.812500 58.629189 1.289355 -2.200207 -26.263927 -69.198364 24.425087 -32.017326 5.867645 12.914213 19.135567 -4.993712 -1.869913 -6.916589 -0.374039 2.407839 0.546622 -1.296638 -12.518986 12.474160 5.219831 1.096362 -10.925806 -2.333980 -6.543879 
9.813883 51.442905 -3.819741 -2.001953 -11.962891 101.992188 4.757881 -18.140848 4.460699 -9.208984 9.511719 2.578125 51.063168 8.107644 2.471410 -69.843750 -6.484375 0.166015 2.000000 -2.000000 0.000000 -89.199219 23.574221 -8.296874 -46.714714 -1.854392 -1.824458 11.500440 64.975288 8.546556 -2.000000 2.000000 0.000000 76.074219 -18.486326 12.333984 58.449883 1.429710 -2.426970 -26.625851 -69.787399 25.523054 -33.090912 5.173777 12.862966 18.245106 -5.038632 -1.763424 -8.617840 -2.226199 2.667929 0.019913 -1.699968 -11.809477 15.629922 5.154663 1.530050 -11.057324 -2.850450 -6.869561 
10.662266 51.245949 -4.356762 -2.177734 -12.314453 101.335808 4.406289 -17.785889 4.520965 -9.208984 9.511719 2.402344 51.063168 8.107644 2.471410 -70.156258 -6.113281 0.791015 2.000000 -2.000000 0.000000 -88.525391 22.705076 -8.564453 -46.539917 -2.022973 -1.863490 11.252943 65.704987 8.074945 -2.000000 2.000000 0.000000 76.923828 -20.380859 11.881366 57.925484 1.327216 -2.178447 -26.671005 -70.229919 26.065319 -34.754601 5.117164 11.623575 22.818415 -4.916671 -2.154388 -7.859634 0.495568 2.629903 -0.497213 -2.279562 -11.342825 18.783169 5.115257 1.479054 -10.435302 -3.365692 -6.916255 
11.550039 51.048988 -4.935201 -2.343750 -12.666015 100.857239 3.938129 -17.252230 4.919023 -9.228516 9.345704 1.993773 51.063168 8.107644 2.471410 -70.478516 -5.917969 1.308617 2.000000 -2.000000 0.000000 -87.822266 21.562500 -9.078441 -46.356735 -1.753985 -1.947675 10.632189 66.322891 7.529614 -2.000000 2.000000 0.000000 78.085938 -22.822264 10.748167 57.222050 1.355895 -2.167000 -27.884716 -70.414497 27.394712 -35.550709 4.705390 9.840477 25.830284 -4.789488 -2.410091 -6.281886 3.320859 2.603055 -0.399847 -2.843806 -10.462126 20.922369 5.389530 1.559551 -9.146226 -3.347179 -7.117177 
12.319051 50.852036 -5.640208 -2.343750 -12.666015 100.320122 3.777652 -16.886669 5.631416 -9.433594 8.857423 1.427285 51.063168 8.107644 2.471410 -70.439453 -5.576171 1.708984 2.000000 -2.000000 0.000000 -86.982422 20.781252 -8.574218 -46.186974 -1.922065 -1.810720 10.857749 66.589302 7.088902 -2.000000 2.000000 0.000000 79.755859 -25.673826 8.941083 56.166252 1.392619 -2.125750 -29.101517 -70.610649 28.978649 -35.448158 4.257665 8.738294 28.117945 -4.692599 -2.568989 -4.837090 6.013773 2.450652 0.623186 -3.048421 -10.120596 21.305120 5.202776 1.697388 -7.116233 -5.046684 -10.311814 
13.501221 50.804779 -6.287613 -2.158203 -12.148438 99.755859 3.783133 -16.497829 6.306886 -9.648438 8.378906 0.693359 51.063168 8.107644 2.471410 -69.570313 -5.683593 1.610361 2.000000 -2.000000 0.000000 -86.904297 20.595703 -6.539534 -46.010502 -1.871611 -1.784335 11.246886 66.134789 7.052319 -2.000000 2.000000 0.000000 81.572266 -28.408205 7.426996 55.110722 1.420161 -2.094812 -30.221415 -70.598991 30.276985 -33.750320 3.835525 7.520749 27.944094 -4.600328 -2.523569 -4.192616 7.172971 1.005679 2.173229 -3.479183 -9.644818 20.604218 5.388856 1.385418 -3.429721 -6.979151 -14.105306 
